Coordinates
version=1
nRows=5
nColumns=46
inDegrees=yes

Units are S.I. units (second, meters, Newtons, ...)
Angles are in degrees.

endheader
time	pelvis_tilt	pelvis_list	pelvis_rotation	pelvis_tx	pelvis_ty	pelvis_tz	bb_angle	bb_tx	bb_ty	bb_tz	hip_flexion_r	hip_adduction_r	hip_rotation_r	knee_angle_r	knee_angle_r_beta	ankle_angle_r	subtalar_angle_r	mtp_angle_r	crank_angle_r	hip_flexion_l	hip_adduction_l	hip_rotation_l	knee_angle_l	knee_angle_l_beta	ankle_angle_l	subtalar_angle_l	mtp_angle_l	crank_angle_l	lumbar_extension	lumbar_bending	lumbar_rotation	arm_flex_r	arm_add_r	arm_rot_r	elbow_flex_r	pro_sup_r	wrist_flex_r	wrist_dev_r	arm_flex_l	arm_add_l	arm_rot_l	elbow_flex_l	pro_sup_l	wrist_flex_l	wrist_dev_l
      5.00500000	    -10.59103949	      2.83262534	      5.23948531	      0.11216422	      1.14657045	     -0.28025165	      0.00000000	      0.50000000	      0.00000000	      0.25000000	     51.19646206	    -12.56095067	     -2.27753329	     76.13357131	      1.32878149	     -9.62014942	     -9.96610068	      0.00000000	      0.00000000	     69.68849854	      2.48727534	      1.94569584	     73.00432283	      1.27416580	     19.04309079	     -6.57269247	      0.00000000	      0.00000000	    -63.23690679	      3.12100898	     -6.16251114	     78.25656498	    -18.94779938	     31.10948862	     67.03220720	     46.11943327	      0.00000000	      0.00000000	     87.15132876	    -27.72159219	     45.49303371	     62.43690124	     48.87409967	      0.00000000	      0.00000000
      5.01000000	    -10.17609471	      2.42325837	      5.11191391	      0.11285499	      1.14494179	     -0.28027374	      0.00000000	      0.50000000	      0.00000000	      0.25000000	     51.83033690	    -12.09352622	     -2.03203654	     78.63768376	      1.37248650	     -8.70995569	    -10.29576805	      0.00000000	      0.00000000	     68.04356351	      2.24890017	      2.38360427	     70.93728379	      1.23808916	     18.93411570	     -6.44056625	      0.00000000	      0.00000000	    -63.32141606	      3.33948454	     -5.75094702	     77.98150667	    -18.96919902	     31.18371447	     67.01607957	     46.13159045	      0.00000000	      0.00000000	     86.82913151	    -27.79496690	     45.60052208	     62.46277290	     48.89473279	      0.00000000	      0.00000000
      5.01500000	     -9.59921407	      2.39248632	      4.99885264	      0.11350513	      1.14375259	     -0.28031047	      0.00000000	      0.50000000	      0.00000000	      0.25000000	     52.31302645	    -12.01230929	     -1.60887997	     81.12290099	      1.41586172	     -7.53180921	    -10.01852770	      0.00000000	      0.00000000	     66.09990878	      2.18880363	      2.49402595	     68.75464640	      1.19999496	     18.68941675	     -6.25185593	      0.00000000	      0.00000000	    -63.60917783	      3.26691208	     -5.64113564	     77.74213604	    -19.13420400	     31.23098039	     66.98958188	     46.14474156	      0.00000000	      0.00000000	     86.67393448	    -27.75057094	     45.69470295	     62.58309856	     48.92917773	      0.00000000	      0.00000000
      5.02000000	     -9.21507570	      1.96853350	      4.91850976	      0.11407913	      1.14204530	     -0.28028472	      0.00000000	      0.50000000	      0.00000000	      0.25000000	     52.93918383	    -11.60083238	     -1.52770012	     83.50416983	      1.45742270	     -6.43598648	    -10.30459936	      0.00000000	      0.00000000	     64.51030563	      1.89081607	      2.93940190	     66.75920556	      1.16516794	     18.27021361	     -5.92294113	      0.00000000	      0.00000000	    -63.67638874	      3.50869317	     -5.26113482	     77.59686078	    -19.10409784	     31.28968442	     66.96314477	     46.15196012	      0.00000000	      0.00000000	     86.41272857	    -27.82301777	     45.77405482	     62.57535850	     48.94247003	      0.00000000	      0.00000000
      5.02500000	     -8.64314697	      1.93214978	      4.87056111	      0.11459904	      1.14091513	     -0.28027566	      0.00000000	      0.50000000	      0.00000000	      0.25000000	     53.40225579	    -11.57713744	     -1.23452059	     85.89541832	      1.49915786	     -5.00020047	     -9.97047228	      0.00000000	      0.00000000	     62.55735953	      1.82120244	      3.06900172	     64.57495881	      1.12704565	     17.78967567	     -5.52922661	      0.00000000	      0.00000000	    -63.99707469	      3.48710602	     -5.18280494	     77.51803930	    -19.19127048	     31.31727554	     66.85799366	     46.14875130	      0.00000000	      0.00000000	     86.29421050	    -27.74780481	     45.84090681	     62.60221048	     48.96185880	      0.00000000	      0.00000000
